<?xml version="1.0" standalone="no"?>
<!DOCTYPE svg PUBLIC "-//W3C//DTD SVG 20010904//EN"
 "http://www.w3.org/TR/2001/REC-SVG-20010904/DTD/svg10.dtd">
<svg version="1.0" xmlns="http://www.w3.org/2000/svg"
 width="400.000000pt" height="400.000000pt" viewBox="0 0 400.000000 400.000000"
 preserveAspectRatio="xMidYMid meet">
<metadata>
Created by potrace 1.11, written by Peter Selinger 2001-2013
</metadata>
<g transform="translate(0.000000,400.000000) scale(0.100000,-0.100000)"
fill="#000000" stroke="none">
<path d="M1848 3995 c-2 -2 -30 -6 -63 -9 -119 -13 -151 -17 -200 -31 -27 -8
-65 -17 -84 -20 -71 -12 -251 -80 -376 -141 -126 -61 -326 -184 -333 -204 -2
-6 -10 -10 -18 -10 -7 0 -19 -9 -26 -20 -7 -11 -17 -20 -22 -20 -10 0 -247
-239 -294 -297 -162 -200 -309 -504 -373 -768 -10 -44 -21 -88 -24 -99 -2 -10
-7 -44 -11 -75 -4 -31 -9 -69 -11 -86 -9 -67 -11 -335 -3 -405 5 -41 12 -100
15 -130 3 -30 12 -77 20 -105 8 -27 17 -65 20 -83 7 -41 52 -178 71 -213 7
-15 11 -28 9 -31 -2 -2 27 -65 64 -140 66 -131 166 -293 196 -318 8 -7 15 -16
15 -20 0 -27 266 -294 365 -365 15 -11 32 -25 39 -30 16 -15 141 -95 179 -115
91 -49 240 -120 250 -120 7 0 17 -4 23 -9 20 -19 285 -95 370 -106 27 -4 69
-11 94 -15 80 -15 436 -12 553 5 152 21 382 83 457 122 14 7 29 13 33 13 7 0
91 41 222 109 102 52 289 196 400 306 186 186 280 314 392 540 85 170 163 403
178 533 3 29 10 76 16 105 11 62 11 453 -1 517 -5 25 -11 66 -14 91 -9 79 -88
352 -107 374 -5 5 -9 15 -9 22 0 11 -84 189 -113 238 -36 63 -94 154 -114 180
-13 17 -30 39 -38 50 -83 110 -338 365 -365 365 -4 0 -13 6 -19 13 -19 23
-171 121 -264 171 -140 74 -316 141 -477 181 -93 24 -99 25 -165 31 -33 3 -82
10 -108 14 -46 7 -342 12 -349 5z m402 -69 c14 -3 66 -13 115 -22 186 -33 337
-86 520 -179 278 -142 489 -318 679 -570 86 -114 238 -391 251 -457 2 -9 9
-26 15 -38 13 -25 61 -196 84 -300 27 -129 37 -383 22 -565 -18 -205 -90 -453
-190 -655 -59 -119 -160 -286 -195 -322 -9 -9 -27 -31 -41 -49 -54 -73 -184
-204 -270 -273 -25 -20 -52 -42 -60 -49 -61 -54 -280 -179 -416 -239 -47 -21
-171 -67 -182 -68 -4 0 -27 -7 -52 -15 -25 -8 -60 -17 -77 -20 -18 -3 -62 -12
-98 -20 -108 -26 -329 -34 -525 -22 -109 7 -113 8 -195 27 -27 6 -61 13 -75
15 -45 6 -193 53 -282 89 -119 48 -338 164 -338 179 0 4 -5 7 -11 7 -28 0
-219 160 -328 274 -36 38 -74 78 -83 88 -10 10 -18 20 -18 23 0 3 -8 14 -17
24 -93 102 -251 382 -303 536 -35 102 -68 218 -74 260 -4 22 -8 47 -11 55 -22
75 -32 222 -29 410 1 91 5 179 8 195 3 17 8 41 11 55 3 14 7 39 10 55 3 17 8
44 11 60 8 41 52 195 63 220 4 11 19 47 31 80 35 91 143 304 172 340 5 6 37
50 73 98 36 49 79 105 97 124 68 75 180 183 189 183 5 0 9 4 9 8 0 11 164 133
244 182 103 62 256 137 356 172 139 49 364 101 480 111 57 4 403 -1 430 -7z"/>
<path d="M2031 3594 c-76 -64 3 -175 101 -142 36 13 58 61 47 102 -19 67 -92
87 -148 40z"/>
<path d="M1814 3395 c-29 -29 -31 -58 -4 -85 24 -24 48 -25 78 -4 27 19 29 65
5 86 -33 28 -53 29 -79 3z"/>
<path d="M2058 3339 c-12 -7 -18 -22 -18 -46 0 -63 61 -85 99 -36 43 54 -20
118 -81 82z"/>
<path d="M1689 3188 c-76 -46 -56 -149 32 -167 l34 -7 1 -237 2 -237 -51 -98
c-28 -53 -79 -153 -114 -222 -36 -68 -69 -130 -75 -137 -6 -7 -8 -13 -6 -13 3
0 -10 -28 -27 -62 -140 -268 -148 -287 -142 -340 7 -55 33 -101 76 -133 25
-19 42 -20 571 -21 572 -1 576 -1 625 43 29 26 55 88 55 131 0 20 -10 54 -23
74 -56 94 -144 242 -160 271 -10 18 -28 49 -40 69 -12 20 -49 82 -82 139 -33
56 -69 117 -80 135 -11 18 -38 64 -61 102 l-41 69 1 234 1 234 29 3 c69 8 111
74 82 129 -27 54 -44 57 -323 57 -224 1 -259 -1 -284 -16z m549 -61 c20 -23
-4 -42 -55 -44 -26 -1 -50 -2 -53 -2 -3 -1 -5 -121 -5 -268 l1 -268 35 -60
c112 -190 186 -320 204 -353 11 -20 23 -39 27 -42 4 -3 12 -17 18 -30 6 -14
22 -43 35 -65 14 -22 29 -49 34 -60 6 -11 23 -41 38 -67 15 -25 41 -68 57 -95
15 -26 30 -66 32 -88 2 -34 -2 -44 -36 -76 l-38 -36 -518 2 c-286 1 -531 5
-546 9 -54 16 -90 123 -53 160 8 8 15 19 15 24 0 5 15 38 34 73 58 109 129
253 132 268 1 8 7 17 11 20 5 3 56 101 114 216 l104 210 0 264 0 265 -53 0
c-56 1 -81 19 -60 43 8 10 70 13 263 13 193 0 255 -3 263 -13z"/>
<path d="M1815 2336 c-41 -18 -44 -22 -124 -181 -39 -77 -75 -145 -81 -152 -5
-7 -10 -15 -10 -19 0 -4 -32 -70 -71 -147 -56 -110 -69 -144 -64 -167 3 -16
13 -31 22 -34 8 -4 245 -6 525 -6 l509 1 13 31 c14 32 9 47 -52 148 -12 19
-28 49 -37 65 -9 17 -21 39 -28 50 -6 11 -34 60 -62 109 -27 49 -60 105 -72
125 -12 20 -28 50 -36 66 -8 17 -21 38 -29 48 -13 18 -15 17 -42 -4 -46 -36
-113 -35 -170 2 -25 17 -46 34 -46 39 0 10 -74 40 -98 40 -9 -1 -31 -7 -47
-14z"/>
<path d="M760 984 l0 -203 129 3 c135 2 161 9 203 60 17 21 17 20 18 -20 l0
-41 164 0 164 0 5 31 c8 54 4 56 -107 56 l-102 0 0 40 0 40 97 0 97 0 0 39 c0
22 -5 41 -11 43 -7 3 -49 4 -94 3 -46 -1 -84 1 -84 4 -1 3 -2 17 -3 31 -1 25
0 25 84 26 92 1 110 -2 110 -19 0 -12 41 -126 66 -183 8 -17 19 -49 26 -70 13
-38 14 -39 63 -41 84 -4 89 -1 115 74 13 37 29 80 36 94 7 15 15 37 18 50 5
24 41 119 58 152 5 11 7 21 4 24 -8 8 -103 11 -115 4 -10 -7 -26 -53 -66 -200
-25 -89 -29 -89 -56 1 -13 46 -33 110 -44 143 l-21 60 -184 0 c-102 0 -193 -1
-202 -3 -14 -3 -18 -14 -18 -45 l0 -40 -22 25 c-43 48 -80 59 -209 62 l-119 3
0 -203z m204 95 c28 -13 36 -35 36 -101 0 -81 -22 -107 -90 -108 l-25 0 0 110
0 110 27 0 c15 0 38 -5 52 -11z"/>
<path d="M1964 1179 c-3 -6 -7 -285 -5 -375 1 -20 6 -20 187 -21 l186 0 14 33
c14 34 15 34 79 34 64 0 65 0 79 -34 l14 -34 190 2 c185 1 191 2 215 24 l25
24 32 -24 c26 -19 47 -24 115 -26 97 -5 138 10 173 61 55 82 2 173 -115 197
-73 15 -93 26 -93 50 0 35 70 32 89 -3 10 -19 19 -22 66 -19 60 4 66 12 40 61
-40 79 -253 79 -295 0 l-13 -23 -13 26 c-21 40 -62 51 -202 52 l-127 1 -5
-135 -5 -135 -19 50 c-51 137 -80 210 -82 214 -2 2 -29 4 -60 6 -45 1 -60 -2
-75 -19 -11 -11 -19 -24 -19 -29 0 -5 -11 -36 -24 -70 -13 -34 -34 -90 -47
-124 l-24 -63 -77 0 c-55 0 -78 4 -79 13 -1 6 -1 74 -2 150 0 75 -3 137 -6
138 -30 6 -113 4 -117 -2z m857 -101 c16 -29 -6 -48 -56 -48 -42 0 -43 1 -41
31 1 17 8 34 14 38 21 13 72 0 83 -21z m-376 -68 c3 -18 10 -41 16 -51 10 -19
7 -21 -26 -21 -51 0 -56 2 -46 20 6 11 12 31 15 46 3 14 8 36 12 48 5 17 8 19
15 6 4 -8 11 -30 14 -48z m510 11 c8 -25 79 -66 130 -75 51 -9 85 -31 85 -55
0 -21 -19 -31 -60 -31 -31 0 -60 22 -60 46 0 12 -10 15 -41 13 -36 -3 -43 0
-50 19 -5 13 -21 30 -37 39 l-28 16 20 23 c26 28 33 29 41 5z m-124 -80 c12
-2 16 -51 5 -60 -16 -13 -106 -18 -107 -6 -4 28 -4 61 -1 68 3 6 50 5 103 -2z"/>
</g>
</svg>
