<?xml version="1.0" encoding="UTF-8"?>
<svg width="98px" height="88px" viewBox="0 0 98 88" version="1.1" xmlns="http://www.w3.org/2000/svg" xmlns:xlink="http://www.w3.org/1999/xlink">
    <!-- Generator: Sketch 44.1 (41455) - http://www.bohemiancoding.com/sketch -->
    <title>Group</title>
    <desc>Created with Sketch.</desc>
    <defs>
        <path d="M43.2246238,28.8477725 L52.7548095,44.8934008 C53.26651,46.8036775 52.1332103,48.7672635 50.2235046,49.2793176 L29.151119,49.2791594 C27.2414133,48.7674217 26.1082718,46.8038356 26.6199723,44.8935589 L34.8747017,28.8202478 L34.8928863,19.4148717 L34.3168279,19.4148717 C33.3283729,19.4148717 32.5269828,18.6134919 32.5269828,17.6245014 C32.5269828,16.6355108 33.3283729,15.8341311 34.3168279,15.8341311 L43.8647239,15.8341311 C44.8531788,15.8341311 45.6544108,16.6358272 45.6544108,17.6246596 C45.6544108,18.6134919 44.8530207,19.4150299 43.8647239,19.4150299 L43.2069135,19.4150299 L43.2233588,28.8186659 L43.2246238,28.8477725 L43.2246238,28.8477725 Z M42.0750369,18.2213442 L43.8647239,18.2213442 C44.1942616,18.2213442 44.4610226,17.9541649 44.4610226,17.6245014 C44.4611808,17.2949961 44.1941034,17.0276586 43.8647239,17.0276586 L42.0750369,17.0276586 L36.1065148,17.0276586 L34.3168279,17.0276586 C33.9874483,17.0276586 33.7202129,17.2949961 33.7202129,17.6245014 C33.7202129,17.9540067 33.9872902,18.2213442 34.3168279,18.2213442 L36.1065148,18.2213442 L36.0791588,28.8651731 L27.7814187,45.13527 C27.4403377,46.4086823 28.1957127,47.717687 29.4689553,48.0588982 L49.9029802,48.0813609 C51.1759065,47.7401496 51.9314396,46.4309868 51.5903586,45.1577327 L42.1071368,28.8262589 L42.0750369,18.2213442 Z" id="path-1"></path>
        <ellipse id="path-2" cx="41.4551772" cy="14.0417044" rx="1.19449506" ry="1.19495116"></ellipse>
        <ellipse id="path-3" cx="41.4551772" cy="9.26174152" rx="1.79174259" ry="1.79242674"></ellipse>
        <ellipse id="path-4" cx="36.6771969" cy="12.846595" rx="1.19449506" ry="1.19495116"></ellipse>
        <path d="M39.6873118,0 C50.6464957,0 60.5683631,4.44397179 67.7503556,11.6287066 C74.9325062,18.8134414 79.3746237,28.7390974 79.3746237,39.702624 C79.3747818,50.6659925 74.9323481,60.5916485 67.7503556,67.7763833 C60.5683631,74.9611181 50.6464957,79.4050899 39.6873118,79.4050899 C28.728128,79.4050899 18.8062605,74.9611181 11.624268,67.7763833 C4.44227558,60.5916485 0,50.6658343 0,39.7024658 C0,28.7389392 4.44227558,18.8132832 11.624268,11.6285484 C18.8062605,4.44381361 28.728128,0 39.6873118,0 L39.6873118,0 Z M66.9133868,12.465995 C59.9456571,5.49560475 50.3196461,1.18435257 39.6873118,1.18435257 C29.0549775,1.18435257 19.4289666,5.49560475 12.4612369,12.465995 C5.49350713,19.4363852 1.18390052,29.0660717 1.18390052,39.7024658 C1.18390052,50.3387018 5.49350713,59.9683883 12.4612369,66.9387785 C19.4289666,73.9091688 29.0548194,78.2204209 39.6873118,78.2204209 C50.3198043,78.2204209 59.945499,73.9091688 66.9133868,66.9387785 C73.8811165,59.9685464 78.1907231,50.3388599 78.1907231,39.7024658 C78.1907231,29.0660717 73.8809584,19.4363852 66.9133868,12.465995 Z" id="path-5"></path>
        <path d="M57.978393,61.1279053 L60.2971745,60.9828471 C60.3468265,61.3593342 60.4496094,61.6459706 60.6037837,61.84418 C60.853467,62.1638777 61.2133652,62.3217492 61.6796831,62.3217492 C62.0266149,62.3217492 62.2947991,62.2409152 62.4839196,62.0775071 C62.6713006,61.914099 62.7645959,61.7249064 62.7645959,61.509929 C62.764754,61.3061831 62.6765188,61.122527 62.4967279,60.9608589 C62.3166207,60.7991909 61.9018523,60.646856 61.2481532,60.5033796 C60.1796858,60.2627759 59.4176694,59.9451346 58.9624204,59.5465012 C58.5033763,59.1478678 58.2739333,58.6408757 58.2739333,58.023943 C58.2739333,57.6180329 58.391422,57.234111 58.6263994,56.8740754 C58.8613769,56.5140398 59.2140012,56.2313581 59.6856955,56.0236574 C60.1575479,55.817855 60.803815,55.7150328 61.6244967,55.7150328 C62.6324013,55.7150328 63.4016915,55.9024855 63.930628,56.2770743 C64.4594063,56.6518214 64.7732894,57.2488224 64.8743328,58.0661791 L62.5776892,58.2003225 C62.5168101,57.8458234 62.3884106,57.5868699 62.1920162,57.4253601 C61.9975194,57.2654321 61.7274376,57.1847563 61.384301,57.1847563 C61.0996715,57.1847563 60.8868319,57.2436022 60.7434103,57.3647741 C60.6003049,57.484206 60.5286731,57.6311625 60.5286731,57.8035873 C60.5286731,57.9285557 60.5874966,58.0405527 60.7049853,58.1417929 C60.8204184,58.2463551 61.0923976,58.3419006 61.5239276,58.4319095 C62.5887581,58.6614401 63.3507745,58.8947672 63.811558,59.1298344 C64.2723415,59.3647434 64.6083624,59.6550181 64.8175651,60.0039805 C65.0269259,60.3512029 65.1333457,60.7405032 65.1333457,61.1721979 C65.1333457,61.6772918 64.9918216,62.143946 64.7128847,62.5697878 C64.4337896,62.9978441 64.0427404,63.3210219 63.5397368,63.5415358 C63.0386308,63.7620497 62.4051721,63.8721485 61.6412582,63.8721485 C60.3009696,63.8721485 59.3719706,63.6150932 58.8561587,63.0971861 C58.3382912,62.5807027 58.0462297,61.9251722 57.978393,61.1279053 Z" id="path-6"></path>
        <path d="M51.4912127,55.8493343 L56.0536652,55.8493343 C56.813784,55.8493343 57.3975907,56.038527 57.8033459,56.4150142 C58.2108404,56.7915013 58.4146667,57.2579973 58.4146667,57.8127622 C58.4146667,58.2792582 58.2695057,58.6796317 57.9794999,59.0138827 C57.7850031,59.2362948 57.502113,59.4126743 57.1294065,59.5411228 C57.6948704,59.6770062 58.1116945,59.9122316 58.3797206,60.2428442 C58.6460073,60.5753551 58.7799412,60.9921801 58.7799412,61.4936357 C58.7799412,61.9031841 58.6844322,62.2704963 58.4953118,62.5974706 C58.3042937,62.9242868 58.045439,63.1815002 57.7149526,63.3725912 C57.5111263,63.4899666 57.2027776,63.5763372 56.7894324,63.6296465 C56.2405719,63.7011474 55.8768786,63.7380052 55.6972458,63.7380052 L51.4908965,63.7380052 L51.4908965,55.8493343 L51.4912127,55.8493343 Z M53.9494627,58.9441218 L55.0089169,58.9441218 C55.3888972,58.9441218 55.6532864,58.8779993 55.8038237,58.7476525 C55.9524636,58.6154074 56.0258347,58.4262147 56.0258347,58.1800744 C56.0258347,57.9505438 55.9524636,57.770526 55.8038237,57.6420775 C55.6532864,57.5117307 55.3944317,57.4473482 55.0253621,57.4473482 L53.9493045,57.4473482 L53.9493045,58.9441218 L53.9494627,58.9441218 Z M53.9494627,62.0425476 L55.192661,62.0425476 C55.6129639,62.0425476 55.9085041,61.9691484 56.0792818,61.8204518 C56.2517989,61.6717552 56.3381365,61.4714894 56.3381365,61.2198125 C56.3381365,60.9864854 56.2536965,60.7991909 56.0829188,60.657771 C55.9121411,60.5161928 55.6148614,60.4446919 55.1869684,60.4446919 L53.9494627,60.4446919 L53.9494627,62.0425476 L53.9494627,62.0425476 Z" id="path-7"></path>
        <path d="M49.421482,62.4354863 L46.6452376,62.4354863 L46.2633598,63.7376888 L43.7739587,63.7376888 L46.7371097,55.8491762 L49.3938097,55.8491762 L52.3590164,63.7376888 L49.8087362,63.7376888 L49.421482,62.4354863 L49.421482,62.4354863 Z M48.9110465,60.7292719 L48.0389733,57.893438 L47.1724347,60.7292719 L48.9110465,60.7292719 Z" id="path-8"></path>
        <polygon id="path-9" points="38.8731134 55.8493343 41.3112812 55.8493343 41.3112812 61.7946672 45.1134567 61.7946672 45.1134567 63.737847 38.8731134 63.737847"></polygon>
        <polygon id="path-10" points="27.5042212 55.8493343 30.0524457 55.8493343 31.8279012 61.5265388 33.5756843 55.8493343 36.0506958 55.8493343 33.1240722 63.737847 30.4839757 63.737847"></polygon>
        <polygon id="path-11" points="21.9752935 55.8493343 28.5040614 55.8493343 28.5040614 57.5335606 24.4172564 57.5335606 24.4172564 58.7879904 28.2085211 58.7879904 28.2085211 60.3970774 24.4172564 60.3970774 24.4172564 61.9507986 28.6234476 61.9507986 28.6234476 63.737847 21.9752935 63.737847"></polygon>
        <path d="M15.0953246,55.8493343 L18.7158116,55.8493343 C19.4281759,55.8493343 20.0047088,55.9467781 20.445252,56.1396091 C20.8840557,56.3341802 21.2475908,56.6114835 21.5341178,56.9734173 C21.8204867,57.3370913 22.02795,57.7577128 22.1582471,58.2387621 C22.2868047,58.7201278 22.3510045,59.22886 22.3510045,59.7668569 C22.3510045,60.6099983 22.2554955,61.2637887 22.062738,61.7283865 C21.87172,62.1931424 21.6055915,62.5824428 21.2640361,62.8947056 C20.9245364,63.2088668 20.5591037,63.4181493 20.1680545,63.5228697 C19.6337417,63.6660297 19.1490809,63.7376888 18.7158116,63.7376888 L15.0953246,63.7376888 L15.0953246,55.8493343 L15.0953246,55.8493343 Z M17.5317529,57.6363827 L17.5317529,61.9451039 L18.128368,61.9451039 C18.6388035,61.9451039 19.0005992,61.8898963 19.2153363,61.7761592 C19.4302316,61.6641622 19.5991118,61.4657946 19.7222931,61.184853 C19.8434187,60.9039113 19.9039816,60.4465902 19.9039816,59.8146297 C19.9039816,58.9790813 19.7679919,58.4077067 19.4963289,58.0992404 C19.2227683,57.7907741 18.7711562,57.6363827 18.1394369,57.6363827 L17.5317529,57.6363827 L17.5317529,57.6363827 Z" id="path-12"></path>
    </defs>
    <g id="Page-1" stroke="none" stroke-width="1" fill="none" fill-rule="evenodd">
        <g id="Group">
            <g id="dev_labs_logo1" transform="translate(9.000000, 8.000000)">
                <g id="Shape">
                    <use fill-opacity="0.85" fill="#238A8F" fill-rule="evenodd" xlink:href="#path-1"></use>
                    <path stroke-opacity="0.85" stroke="#238A8F" stroke-width="0.2" d="M43.3234385,28.8183286 L52.851404,44.8675262 C53.3773879,46.8311253 52.2124596,48.8495465 50.2235039,49.3793176 L29.1252356,49.3757516 C27.162236,48.8497328 25.9973749,46.8313544 26.5310176,44.8478747 L34.7747019,28.8200544 L34.7926928,19.5148717 L34.3168279,19.5148717 C33.2730552,19.5148717 32.4269828,18.6686312 32.4269828,17.6245014 C32.4269828,16.5803716 33.2730552,15.7341311 34.3168279,15.7341311 L43.8647239,15.7341311 C44.9083884,15.7341311 45.7544108,16.5805798 45.7544108,17.6246596 C45.7544108,18.6686586 44.9083109,19.5150299 43.8647239,19.5150299 L43.3070876,19.5150299 L43.3232645,28.8143238 L43.3234385,28.8183286 Z M41.9750374,18.2216469 L42.0750369,18.1213442 L43.8647239,18.1213442 C44.1389478,18.1213442 44.3610226,17.8990218 44.3610226,17.6244534 C44.3611543,17.3501795 44.1388404,17.1276586 43.8647239,17.1276586 L34.3168279,17.1276586 C34.0426853,17.1276586 33.8202129,17.350216 33.8202129,17.6245014 C33.8202129,17.8988455 34.0425859,18.1213442 34.3168279,18.1213442 L36.1065148,18.1213442 L36.2065145,18.2216012 L36.1682423,28.9106057 L27.8780138,45.1611428 C27.5511977,46.3812974 28.2750246,47.6354128 29.4690652,47.9588983 L49.877089,47.9847708 C51.0966483,47.6578647 51.8205637,46.4035489 51.5038807,45.2079479 L42.0071373,28.8265616 L41.9750374,18.2216469 Z"></path>
                </g>
                <path d="M49.5027595,46.9541141 L29.797228,46.9541141 C29.1607648,46.7834294 28.7829982,46.1290062 28.9536178,45.4923 L34.8868775,33.793358 C34.8868775,33.793358 36.6771969,31.4034557 39.1406651,33.793358 C41.6790857,36.3325897 43.6673808,33.793358 43.6673808,33.793358 L50.3465278,45.4923 C50.5171474,46.128848 50.1393808,46.7835876 49.5027595,46.9541141 Z" id="Shape" fill-opacity="0.85" fill="#238A8F"></path>
                <g id="Oval">
                    <use fill-opacity="0.85" fill="#238A8F" fill-rule="evenodd" xlink:href="#path-2"></use>
                    <ellipse stroke-opacity="0.85" stroke="#238A8F" stroke-width="0.2" cx="41.4551772" cy="14.0417044" rx="1.29449506" ry="1.29495116"></ellipse>
                </g>
                <g id="Oval">
                    <use fill-opacity="0.85" fill="#238A8F" fill-rule="evenodd" xlink:href="#path-3"></use>
                    <ellipse stroke-opacity="0.85" stroke="#238A8F" stroke-width="0.2" cx="41.4551772" cy="9.26174152" rx="1.89174259" ry="1.89242674"></ellipse>
                </g>
                <g id="Oval">
                    <use fill-opacity="0.85" fill="#238A8F" fill-rule="evenodd" xlink:href="#path-4"></use>
                    <ellipse stroke-opacity="0.85" stroke="#238A8F" stroke-width="0.2" cx="36.6771969" cy="12.846595" rx="1.29449506" ry="1.29495116"></ellipse>
                </g>
                <g id="Shape">
                    <use fill-opacity="0.85" fill="#238A8F" fill-rule="evenodd" xlink:href="#path-5"></use>
                    <path stroke-opacity="0.85" stroke="#238A8F" stroke-width="0.5" d="M39.6873118,-0.25 C50.4231683,-0.25 60.4859345,4.00789082 67.9271641,11.4519617 C75.3684456,18.8959207 79.6246237,28.962463 79.6246237,39.7026204 C79.6247786,50.4423867 75.3684823,60.5089686 67.9271661,67.9531262 C60.4859345,75.3971991 50.4231683,79.6550899 39.6873118,79.6550899 C28.9514553,79.6550899 18.8886891,75.3971991 11.4474576,67.9531262 C4.00627316,60.5091005 -0.25,50.4423903 -0.25,39.7024658 C-0.25,28.9624403 4.00622978,18.8958746 11.4474576,11.4518055 C18.888621,4.00780073 28.9513724,-0.25 39.6873118,-0.25 Z M66.7365764,12.6427379 C59.6088745,5.51231447 49.9710615,1.43435257 39.6873118,1.43435257 C29.4035622,1.43435257 19.7657491,5.51231447 12.6380473,12.6427379 C5.51032717,19.7731797 1.43390052,29.414723 1.43390052,39.7024658 C1.43390052,49.9900722 5.51034156,59.6316082 12.6380473,66.7620356 C19.7657927,73.8925026 29.4034614,77.9704209 39.6873118,77.9704209 C49.9711054,77.9704209 59.6086226,73.8925492 66.7365784,66.7620336 C73.8642791,59.631773 77.9407231,49.9902299 77.9407231,39.7024658 C77.9407231,29.4148582 73.8642444,19.7732893 66.7365744,12.6427359 Z"></path>
                </g>
                <g id="Shape">
                    <use fill-opacity="0.85" fill="#238A8F" fill-rule="evenodd" xlink:href="#path-6"></use>
                    <path stroke-opacity="0.85" stroke="#238A8F" stroke-width="0.2" d="M57.9721494,61.0281004 L60.2909309,60.8830422 L60.396316,60.969772 C60.4436623,61.3287754 60.5402565,61.5996335 60.6825958,61.7826279 C60.9115814,62.0758241 61.2413037,62.2217492 61.6796831,62.2217492 C62.0051254,62.2217492 62.2498998,62.1475523 62.4181946,62.0021398 C62.5844412,61.8571623 62.6645959,61.694961 62.6645959,61.5098514 C62.6647318,61.3347541 62.5884701,61.1778362 62.4299293,61.0352763 C62.2665726,60.888644 61.8631535,60.7407426 61.2261848,60.6009367 C60.1402656,60.3564031 59.3655801,60.0324421 58.8968526,59.6220054 C58.4157362,59.2042043 58.1739333,58.6695762 58.1739333,58.023943 C58.1739333,57.5980931 58.2973591,57.1952688 58.5426567,56.8194206 C58.7885875,56.4426021 59.1563103,56.1474958 59.6457169,55.9319965 C60.1318797,55.7199525 60.791077,55.6150328 61.6244967,55.6150328 C62.6514149,55.6150328 63.440294,55.8072862 63.9884498,56.1954861 C64.5413176,56.5873055 64.8691731,57.2093676 64.9735774,58.0539103 L64.8801637,58.166009 L62.5835201,58.3001523 L62.4791319,58.217248 C62.4219144,57.8840703 62.3040059,57.6469297 62.1285037,57.502601 C61.953425,57.3586399 61.7055676,57.2847563 61.384301,57.2847563 C61.1200241,57.2847563 60.9302128,57.3378633 60.8074849,57.4415494 C60.686863,57.5422172 60.6286731,57.6612449 60.6286731,57.8035873 C60.6286731,57.8970646 60.6732765,57.9824645 60.77212,58.0676786 C60.8693606,58.1557616 61.1278533,58.2471438 61.5449992,58.3341548 C62.6140676,58.5645989 63.3852313,58.8000844 63.8569767,59.0407437 C64.3352999,59.2845945 64.6845563,59.5876295 64.9032024,59.9523448 C65.1228897,60.3166936 65.2333457,60.724171 65.2333457,61.1721979 C65.2333457,61.6954499 65.0868727,62.1813371 64.7966522,62.6244046 C64.5070899,63.0685149 64.1010748,63.4046359 63.5800148,63.6330655 C63.0652744,63.8595793 62.4185514,63.9721485 61.6412582,63.9721485 C60.2749994,63.9721485 59.3229844,63.7076169 58.7855427,63.1679914 C58.2505909,62.6344693 57.9485577,61.9567794 57.878753,61.1363834 L57.9721494,61.0281004 Z"></path>
                </g>
                <g id="Shape">
                    <use fill-opacity="0.85" fill="#238A8F" fill-rule="evenodd" xlink:href="#path-7"></use>
                    <path stroke-opacity="0.85" stroke="#238A8F" stroke-width="0.2" d="M57.4381626,59.5246956 C57.8809956,59.6708429 58.2219256,59.8894094 58.4577756,60.1803349 C58.739272,60.5318381 58.8799412,60.9710037 58.8799412,61.4936357 C58.8799412,61.919299 58.7805036,62.3041255 58.5816465,62.6479317 C58.3818054,62.9898433 58.1103994,63.2594526 57.7648557,63.4592496 C57.5467585,63.584843 57.2256661,63.6742135 56.8023504,63.7288086 C56.2395174,63.8021297 55.8798452,63.8380052 55.6972458,63.8380052 L51.4908965,63.8380052 L51.3908965,63.7380052 L51.3908965,55.8493343 L51.4908965,55.7493343 L56.0536652,55.7493343 C56.836715,55.7493343 57.4450189,55.9461179 57.8712068,56.3415642 C58.2990702,56.7368703 58.5146667,57.2299403 58.5146667,57.8127622 C58.5146667,58.3028929 58.3611167,58.7266352 58.0547766,59.0797113 C57.8996297,59.2571258 57.6938083,59.4054205 57.4381626,59.5246956 Z M54.0493045,57.5473482 L54.0493045,57.4473482 L53.9493045,57.5473482 L54.0493045,57.5473482 Z M54.0493045,58.8441218 L53.9493045,58.8441218 L53.9493045,58.9441218 L54.0493045,58.9441218 L54.0493045,58.8441218 Z M54.0493045,58.8441218 L54.0493045,57.5473482 L55.0253621,57.5473482 C55.3732138,57.5473482 55.6099469,57.6064819 55.7383648,57.7176759 C55.8634094,57.8257345 55.9258347,57.9774779 55.9258347,58.1800744 C55.9258347,58.3998578 55.8628128,58.5613204 55.7373535,58.6729417 C55.6093194,58.7837915 55.3659466,58.8441218 55.0089169,58.8441218 L54.0493045,58.8441218 Z M54.0494627,61.9425476 L55.192661,61.9425476 C55.5920555,61.9425476 55.8651795,61.8742771 56.0139942,61.7447054 C56.1638299,61.6155584 56.2381365,61.4431543 56.2381365,61.2198125 C56.2381365,61.0152709 56.1662026,60.8565738 56.0190965,60.7347562 C55.8695397,60.6107706 55.5924752,60.5446919 55.1869684,60.5446919 L54.0494627,60.5446919 L54.0494627,61.9425476 Z"></path>
                </g>
                <g id="Shape">
                    <use fill-opacity="0.85" fill="#238A8F" fill-rule="evenodd" xlink:href="#path-8"></use>
                    <path stroke-opacity="0.85" stroke="#238A8F" stroke-width="0.2" d="M49.3468922,62.5354863 L46.7201234,62.5354863 L46.3593187,63.7658293 L46.2633598,63.8376888 L43.7739587,63.8376888 L43.6803451,63.7025249 L46.6434962,55.8140122 L46.7371097,55.7491762 L49.3938097,55.7491762 L49.4874152,55.8139909 L52.4526219,63.7025035 L52.3590164,63.8376888 L49.8087362,63.8376888 L49.7128849,63.7661935 L49.3468922,62.5354863 Z M48.7756729,60.6292719 L48.0392777,58.2346394 L47.3075559,60.6292719 L48.7756729,60.6292719 Z"></path>
                </g>
                <g id="Shape">
                    <use fill-opacity="0.85" fill="#238A8F" fill-rule="evenodd" xlink:href="#path-9"></use>
                    <path stroke-opacity="0.85" stroke="#238A8F" stroke-width="0.2" d="M41.4112812,61.6946672 L45.1134567,61.6946672 L45.2134567,61.7946672 L45.2134567,63.737847 L45.1134567,63.837847 L38.8731134,63.837847 L38.7731134,63.737847 L38.7731134,55.8493343 L38.8731134,55.7493343 L41.3112812,55.7493343 L41.4112812,55.8493343 L41.4112812,61.6946672 Z"></path>
                </g>
                <g id="Shape">
                    <use fill-opacity="0.85" fill="#238A8F" fill-rule="evenodd" xlink:href="#path-10"></use>
                    <path stroke-opacity="0.85" stroke="#238A8F" stroke-width="0.2" d="M31.8271511,61.1891077 L33.4801109,55.8199111 L33.5756843,55.7493343 L36.0506958,55.7493343 L36.1444515,55.8841175 L33.2178279,63.7726302 L33.1240722,63.837847 L30.4839757,63.837847 L30.3904271,63.7731834 L27.4106727,55.8846708 L27.5042212,55.7493343 L30.0524457,55.7493343 L30.1478874,55.8194865 L31.8271511,61.1891077 Z"></path>
                </g>
                <g id="Shape">
                    <use fill-opacity="0.85" fill="#238A8F" fill-rule="evenodd" xlink:href="#path-11"></use>
                    <path stroke-opacity="0.85" stroke="#238A8F" stroke-width="0.2" d="M24.5172564,57.6335606 L24.5172564,58.6879904 L28.2085211,58.6879904 L28.3085211,58.7879904 L28.3085211,60.3970774 L28.2085211,60.4970774 L24.5172564,60.4970774 L24.5172564,61.8507986 L28.6234476,61.8507986 L28.7234476,61.9507986 L28.7234476,63.737847 L28.6234476,63.837847 L21.9752935,63.837847 L21.8752935,63.737847 L21.8752935,55.8493343 L21.9752935,55.7493343 L28.5040614,55.7493343 L28.6040614,55.8493343 L28.6040614,57.5335606 L28.5040614,57.6335606 L24.5172564,57.6335606 Z"></path>
                </g>
                <g id="Shape">
                    <use fill-opacity="0.85" fill="#238A8F" fill-rule="evenodd" xlink:href="#path-12"></use>
                    <path stroke-opacity="0.85" stroke="#238A8F" stroke-width="0.2" d="M15.0953246,55.7493343 L18.7158116,55.7493343 C19.4394328,55.7493343 20.0297848,55.8485941 20.485787,56.048193 C20.9404704,56.2498053 21.3166114,56.5375595 21.612684,56.9115517 C21.9075385,57.2860019 22.1210133,57.7187997 22.2548609,58.2129596 C22.3857305,58.7029823 22.4510045,59.2203903 22.4510045,59.7668569 C22.4510045,60.6234747 22.3533684,61.2888369 22.1552305,61.7664015 C21.9584704,62.2451283 21.6837307,62.6464978 21.3319547,62.9681022 C20.9810869,63.292783 20.6014391,63.5103358 20.1939349,63.6194626 C19.651731,63.764737 19.1584974,63.8376888 18.7158116,63.8376888 L15.0953246,63.8376888 L14.9953246,63.7376888 L14.9953246,55.8493343 L15.0953246,55.7493343 Z M17.6317529,57.7363827 L17.6317529,61.8451039 L18.128368,61.8451039 C18.6263088,61.8451039 18.9727058,61.7915095 19.1691194,61.6874801 C19.3614731,61.5872311 19.5156778,61.4070523 19.6304642,61.1452617 C19.7449399,60.8797443 19.8039816,60.4343338 19.8039816,59.8146297 C19.8039816,59.0015161 19.6731927,58.4513691 19.4215119,58.1655911 C19.1694332,57.8813477 18.7446942,57.7363827 18.1394369,57.7363827 L17.6317529,57.7363827 Z"></path>
                </g>
            </g>
            <path d="M47.9513434,0 L0,0 L0,49.3767046 L0.00987416292,49.3767046 C0.00330173596,49.0502888 0,48.7230806 0,48.3951105 C0,22.0074035 21.3735769,0.551244361 47.9513434,-1.3964524e-15 Z M50.0486566,0 L98,0 L98,49.3767046 L97.9901258,49.3767046 C97.9966983,49.0502888 98,48.7230806 98,48.3951105 C98,22.0074035 76.6264231,0.551244361 50.0486566,-1.31145095e-15 Z" id="Combined-Shape" fill-opacity="0.85" fill="#238A8F"></path>
        </g>
    </g>
</svg>